<svg width="20" height="20" viewBox="0 0 20 20" fill="none" xmlns="http://www.w3.org/2000/svg">
<path d="M4.9834 11.0962H9.95654C10.1616 11.0962 10.3325 11.0278 10.4692 10.8911C10.6128 10.7476 10.6846 10.5732 10.6846 10.3682V3.92871C10.6846 3.73047 10.6128 3.56299 10.4692 3.42627C10.3325 3.28271 10.1616 3.21094 9.95654 3.21094C9.7583 3.21094 9.5874 3.28271 9.44385 3.42627C9.30713 3.56299 9.23877 3.73047 9.23877 3.92871V9.65039H4.9834C4.77148 9.65039 4.59717 9.72217 4.46045 9.86572C4.32373 10.0024 4.25537 10.1699 4.25537 10.3682C4.25537 10.5732 4.32373 10.7476 4.46045 10.8911C4.59717 11.0278 4.77148 11.0962 4.9834 11.0962ZM9.9668 19.9351C11.3271 19.9351 12.6089 19.6719 13.812 19.1455C15.0151 18.626 16.0747 17.9082 16.9907 16.9922C17.9067 16.0762 18.6245 15.02 19.144 13.8237C19.6636 12.6206 19.9233 11.3354 19.9233 9.96826C19.9233 8.60791 19.6602 7.32617 19.1338 6.12305C18.6143 4.91992 17.8965 3.86035 16.9805 2.94434C16.0645 2.02832 15.0049 1.31055 13.8018 0.791016C12.5986 0.271484 11.3169 0.0117188 9.95654 0.0117188C8.59619 0.0117188 7.31445 0.271484 6.11133 0.791016C4.91504 1.31055 3.85547 2.02832 2.93262 2.94434C2.0166 3.86035 1.29883 4.91992 0.779297 6.12305C0.259766 7.32617 0 8.60791 0 9.96826C0 11.3354 0.259766 12.6206 0.779297 13.8237C1.30566 15.02 2.02686 16.0762 2.94287 16.9922C3.85889 17.9082 4.91504 18.626 6.11133 19.1455C7.31445 19.6719 8.59961 19.9351 9.9668 19.9351ZM9.9668 18.1099C8.83887 18.1099 7.78271 17.8979 6.79834 17.4741C5.81396 17.0571 4.94922 16.4761 4.2041 15.731C3.45898 14.9858 2.87793 14.1211 2.46094 13.1367C2.04395 12.1523 1.83545 11.0962 1.83545 9.96826C1.83545 8.84033 2.04395 7.78418 2.46094 6.7998C2.87793 5.81543 3.45898 4.95068 4.2041 4.20557C4.94922 3.46045 5.81055 2.87939 6.78809 2.4624C7.77246 2.04541 8.82861 1.83691 9.95654 1.83691C11.0845 1.83691 12.1406 2.04541 13.125 2.4624C14.1094 2.87939 14.9741 3.46045 15.7192 4.20557C16.4644 4.95068 17.0454 5.81543 17.4624 6.7998C17.8862 7.78418 18.0981 8.84033 18.0981 9.96826C18.105 11.0962 17.8965 12.1523 17.4727 13.1367C17.0557 14.1211 16.4746 14.9858 15.7295 15.731C14.9912 16.4761 14.1265 17.0571 13.1353 17.4741C12.1509 17.8979 11.0947 18.1099 9.9668 18.1099Z" fill="#FFC908"/>
</svg>
