<svg width="26" height="24" viewBox="0 0 26 24" fill="none" xmlns="http://www.w3.org/2000/svg">
<path d="M24.458 12C24.458 5.37258 19.0854 0 12.458 0C5.83059 0 0.458008 5.37258 0.458008 12C0.458008 18.6274 5.83059 24 12.458 24C19.0854 24 24.458 18.6274 24.458 12Z" fill="#7A7A7A"/>
<path d="M12.5758 12.3516C12.7902 12.3516 13.0117 12.2373 13.2402 12.0088L17.8334 7.44727C17.6295 7.26446 17.2691 7.17305 16.7523 7.17305H8.24629C7.79277 7.17305 7.47461 7.25742 7.2918 7.42617L11.9113 12.0088C12.1363 12.2373 12.3578 12.3516 12.5758 12.3516ZM6.79082 15.5367L10.5771 11.782L6.79609 8.05371C6.69766 8.22246 6.64844 8.49844 6.64844 8.88164V14.7141C6.64844 15.0973 6.6959 15.3715 6.79082 15.5367ZM8.37812 16.4279H16.8842C17.3447 16.4279 17.6699 16.3383 17.8598 16.159L14.0049 12.3305L13.6779 12.6627C13.3193 13.0072 12.952 13.1795 12.5758 13.1795C12.1961 13.1795 11.827 13.0072 11.4684 12.6627L11.1414 12.3357L7.2918 16.159C7.50625 16.3383 7.86836 16.4279 8.37812 16.4279ZM18.3449 15.5314C18.4363 15.3627 18.482 15.0902 18.482 14.7141V8.88164C18.482 8.50196 18.4346 8.2295 18.3396 8.06426L14.5691 11.782L18.3449 15.5314Z" fill="white"/>
</svg>
