<svg width="24" height="24" viewBox="0 0 24 24" fill="none" xmlns="http://www.w3.org/2000/svg">
<path d="M24 12C24 5.37258 18.6274 0 12 0C5.37258 0 0 5.37258 0 12C0 18.6274 5.37258 24 12 24C18.6274 24 24 18.6274 24 12Z" fill="#7A7A7A"/>
<path d="M10.914 11.784C10.572 11.784 10.302 12.084 10.302 12.45C10.302 12.816 10.578 13.116 10.914 13.116C11.256 13.116 11.526 12.816 11.526 12.45C11.532 12.084 11.256 11.784 10.914 11.784ZM13.104 11.784C12.762 11.784 12.492 12.084 12.492 12.45C12.492 12.816 12.768 13.116 13.104 13.116C13.446 13.116 13.716 12.816 13.716 12.45C13.716 12.084 13.446 11.784 13.104 11.784Z" fill="white"/>
<path d="M16.02 6.75H7.98C7.302 6.75 6.75 7.302 6.75 7.986V16.098C6.75 16.782 7.302 17.334 7.98 17.334H14.784L14.466 16.224L15.234 16.938L15.96 17.61L17.25 18.75V7.986C17.25 7.302 16.698 6.75 16.02 6.75ZM13.704 14.586C13.704 14.586 13.488 14.328 13.308 14.1C14.094 13.878 14.394 13.386 14.394 13.386C14.148 13.548 13.914 13.662 13.704 13.74C13.404 13.866 13.116 13.95 12.834 13.998C12.258 14.106 11.73 14.076 11.28 13.992C10.938 13.926 10.644 13.83 10.398 13.734C10.26 13.68 10.11 13.614 9.96 13.53C9.942 13.518 9.924 13.512 9.906 13.5C9.894 13.494 9.888 13.488 9.882 13.482C9.774 13.422 9.714 13.38 9.714 13.38C9.714 13.38 10.002 13.86 10.764 14.088C10.584 14.316 10.362 14.586 10.362 14.586C9.036 14.544 8.532 13.674 8.532 13.674C8.532 11.742 9.396 10.176 9.396 10.176C10.26 9.528 11.082 9.546 11.082 9.546L11.142 9.618C10.062 9.93 9.564 10.404 9.564 10.404C9.564 10.404 9.696 10.332 9.918 10.23C10.56 9.948 11.07 9.87 11.28 9.852C11.316 9.846 11.346 9.84 11.382 9.84C11.748 9.792 12.162 9.78 12.594 9.828C13.164 9.894 13.776 10.062 14.4 10.404C14.4 10.404 13.926 9.954 12.906 9.642L12.99 9.546C12.99 9.546 13.812 9.528 14.676 10.176C14.676 10.176 15.54 11.742 15.54 13.674C15.54 13.674 15.03 14.544 13.704 14.586Z" fill="white"/>
</svg>
