<?xml version="1.0" encoding="UTF-8"?>
<svg width="40px" height="40px" viewBox="0 0 40 40" version="1.1" xmlns="http://www.w3.org/2000/svg" xmlns:xlink="http://www.w3.org/1999/xlink">
    <title>Fill 1</title>
    <g id="Page-1" stroke="none" stroke-width="1" fill="none" fill-rule="evenodd">
        <g id="New-Dashboard-Nav" transform="translate(-49.000000, -307.000000)" fill="#FFFFFF">
            <g id="Group-2" transform="translate(30.000000, 307.000000)">
                <g id="Group-3" transform="translate(19.000000, 0.000000)">
                    <path d="M34.516129,7.90322581 C33.8629032,7.90322581 33.275,7.63709677 32.8395161,7.21612903 C32.8298387,7.20645161 32.8274194,7.19435484 32.8177419,7.18467742 C32.8080645,7.175 32.7959677,7.17016129 32.7862903,7.16048387 C32.3629032,6.72741935 32.0967742,6.13709677 32.0967742,5.48387097 C32.0967742,4.15080645 33.1806452,3.06451613 34.516129,3.06451613 C35.8516129,3.06451613 36.9354839,4.15080645 36.9354839,5.48387097 C36.9354839,6.81693548 35.8516129,7.90322581 34.516129,7.90322581 M32.0967742,30.8870968 C32.0967742,31.5524194 31.5524194,32.0967742 30.8870968,32.0967742 C30.2217742,32.0967742 29.6774194,31.5524194 29.6774194,30.8870968 C29.6774194,30.2217742 30.2217742,29.6774194 30.8870968,29.6774194 C31.5524194,29.6774194 32.0967742,30.2217742 32.0967742,30.8870968 M22.4193548,34.516129 C22.4193548,35.8516129 21.3354839,36.9354839 20,36.9354839 C18.6669355,36.9354839 17.5806452,35.8516129 17.5806452,34.516129 C17.5806452,33.1806452 18.6669355,32.0967742 20,32.0967742 C21.3354839,32.0967742 22.4193548,33.1806452 22.4193548,34.516129 M5.48387097,36.9354839 C4.15080645,36.9354839 3.06451613,35.8516129 3.06451613,34.516129 C3.06451613,33.1806452 4.15080645,32.0967742 5.48387097,32.0967742 C6.81935484,32.0967742 7.90322581,33.1806452 7.90322581,34.516129 C7.90322581,35.8516129 6.81935484,36.9354839 5.48387097,36.9354839 M5.48387097,6.69354839 C5.48387097,6.02580645 6.02822581,5.48387097 6.69354839,5.48387097 C7.36129032,5.48387097 7.90322581,6.02580645 7.90322581,6.69354839 C7.90322581,7.36129032 7.36129032,7.90322581 6.69354839,7.90322581 C6.02822581,7.90322581 5.48387097,7.36129032 5.48387097,6.69354839 M23.6290323,20 C23.6290323,22.0008065 22.0008065,23.6290323 20,23.6290323 C19.0443548,23.6290323 18.1806452,23.2491935 17.5298387,22.6443548 C17.5032258,22.6104839 17.491129,22.5693548 17.4620968,22.5403226 C17.4306452,22.508871 17.3919355,22.4967742 17.3580645,22.4701613 C16.7508065,21.8217742 16.3709677,20.9580645 16.3709677,20 C16.3709677,17.9991935 17.9991935,16.3709677 20,16.3709677 C22.0008065,16.3709677 23.6290323,17.9991935 23.6290323,20 M34.516129,0.64516129 C31.8475806,0.64516129 29.6774194,2.81532258 29.6774194,5.48387097 C29.6774194,6.37903226 29.9387097,7.20645161 30.3645161,7.92741935 L23.3314516,14.9604839 C22.3733871,14.3241935 21.2314516,13.9516129 20,13.9516129 C18.7709677,13.9516129 17.6266129,14.3241935 16.6709677,14.9604839 L9.95967742,8.24919355 C10.1846774,7.775 10.3225806,7.25241935 10.3225806,6.69354839 C10.3225806,4.69274194 8.69435484,3.06451613 6.69354839,3.06451613 C4.69274194,3.06451613 3.06451613,4.69274194 3.06451613,6.69354839 C3.06451613,8.69435484 4.69274194,10.3225806 6.69354839,10.3225806 C7.25241935,10.3225806 7.775,10.1846774 8.24919355,9.95967742 L14.9604839,16.6709677 C14.3266129,17.6266129 13.9516129,18.7685484 13.9516129,20 C13.9516129,21.2314516 14.3266129,22.3733871 14.9604839,23.3314516 L7.92741935,30.3645161 C7.20645161,29.9387097 6.37903226,29.6774194 5.48387097,29.6774194 C2.81532258,29.6774194 0.64516129,31.8475806 0.64516129,34.516129 C0.64516129,37.1846774 2.81532258,39.3548387 5.48387097,39.3548387 C8.15483871,39.3548387 10.3225806,37.1846774 10.3225806,34.516129 C10.3225806,33.6233871 10.0637097,32.7935484 9.63790323,32.075 L16.6709677,25.0419355 C17.3048387,25.4604839 18.0209677,25.7701613 18.7903226,25.925 L18.7903226,29.8491935 C16.7096774,30.3887097 15.1612903,32.2685484 15.1612903,34.516129 C15.1612903,37.1846774 17.3314516,39.3548387 20,39.3548387 C22.6685484,39.3548387 24.8387097,37.1846774 24.8387097,34.516129 C24.8387097,32.2685484 23.2903226,30.391129 21.2096774,29.8491935 L21.2096774,25.925 C21.9814516,25.7701613 22.6975806,25.4604839 23.3314516,25.0395161 L27.6209677,29.3314516 C27.3959677,29.8056452 27.2580645,30.3282258 27.2580645,30.8870968 C27.2580645,32.8879032 28.8862903,34.516129 30.8870968,34.516129 C32.8879032,34.516129 34.516129,32.8879032 34.516129,30.8870968 C34.516129,28.8862903 32.8879032,27.2580645 30.8870968,27.2580645 C30.3306452,27.2580645 29.8056452,27.3959677 29.3314516,27.6209677 L25.0419355,23.3290323 C25.6758065,22.3733871 26.0483871,21.2314516 26.0483871,20 C26.0483871,18.7685484 25.6758065,17.6266129 25.0419355,16.6709677 L32.075,9.63790323 C32.7959677,10.0637097 33.6233871,10.3225806 34.516129,10.3225806 C37.1846774,10.3225806 39.3548387,8.15241935 39.3548387,5.48387097 C39.3548387,2.81532258 37.1846774,0.64516129 34.516129,0.64516129" id="Fill-1"></path>
                </g>
            </g>
        </g>
    </g>
</svg>