<svg width="130" height="130" viewBox="0 0 130 130" fill="none" xmlns="http://www.w3.org/2000/svg">
<path d="M64.96 129.92C73.8336 129.92 82.1765 128.222 89.9887 124.825C97.8433 121.428 104.764 116.737 110.75 110.75C116.737 104.764 121.428 97.8646 124.825 90.0524C128.222 82.1977 129.92 73.8336 129.92 64.96C129.92 56.0864 128.222 47.7435 124.825 39.9313C121.428 32.0767 116.737 25.1561 110.75 19.1696C104.764 13.1831 97.8433 8.4915 89.9887 5.0949C82.1341 1.6983 73.7699 0 64.8963 0C56.0227 0 47.6586 1.6983 39.8039 5.0949C31.9917 8.4915 25.0924 13.1831 19.1059 19.1696C13.1618 25.1561 8.4915 32.0767 5.0949 39.9313C1.6983 47.7435 0 56.0864 0 64.96C0 73.8336 1.6983 82.1977 5.0949 90.0524C8.4915 97.8646 13.1831 104.764 19.1696 110.75C25.1561 116.737 32.0554 121.428 39.8676 124.825C47.7222 128.222 56.0864 129.92 64.96 129.92ZM64.96 119.093C57.445 119.093 50.4183 117.692 43.8798 114.89C37.3414 112.088 31.5884 108.224 26.6209 103.299C21.6958 98.3316 17.8322 92.5786 15.03 86.0402C12.2702 79.5017 10.8904 72.475 10.8904 64.96C10.8904 57.445 12.2702 50.4183 15.03 43.8798C17.8322 37.3414 21.6958 31.5884 26.6209 26.6209C31.5459 21.6533 37.2777 17.7897 43.8162 15.03C50.3546 12.2278 57.3813 10.8267 64.8963 10.8267C72.4113 10.8267 79.438 12.2278 85.9765 15.03C92.5149 17.7897 98.2679 21.6533 103.235 26.6209C108.203 31.5884 112.088 37.3414 114.89 43.8798C117.692 50.4183 119.093 57.445 119.093 64.96C119.093 72.475 117.692 79.5017 114.89 86.0402C112.13 92.5786 108.267 98.3316 103.299 103.299C98.3741 108.224 92.6211 112.088 86.0402 114.89C79.5017 117.692 72.475 119.093 64.96 119.093ZM42.7335 92.5998C44.3044 92.5998 45.8117 91.8781 47.2552 90.4345L90.0524 47.0005C91.4959 45.5994 92.2177 44.1346 92.2177 42.6061C92.2177 41.1201 91.687 39.8676 90.6256 38.8486C89.5641 37.8296 88.3116 37.3202 86.8681 37.3202C85.3396 37.3202 83.8748 38.0419 82.4737 39.4855L39.7402 82.8558C38.2967 84.2994 37.5749 85.7854 37.5749 87.3139C37.5749 88.7574 38.0419 90.0099 38.976 91.0714C39.9525 92.0903 41.205 92.5998 42.7335 92.5998Z" fill="#F73C3C"/>
</svg>
