<svg width="16" height="16" viewBox="0 0 16 16" fill="none" xmlns="http://www.w3.org/2000/svg">
<path d="M8 16C9.09281 16 10.1203 15.7908 11.0824 15.3725C12.0497 14.9542 12.902 14.3765 13.6392 13.6392C14.3765 12.902 14.9542 12.0523 15.3725 11.0902C15.7908 10.1229 16 9.09281 16 8C16 6.90719 15.7908 5.87974 15.3725 4.91765C14.9542 3.95033 14.3765 3.09804 13.6392 2.36078C12.902 1.62353 12.0497 1.04575 11.0824 0.627451C10.115 0.20915 9.08497 0 7.99216 0C6.89935 0 5.86928 0.20915 4.90196 0.627451C3.93987 1.04575 3.0902 1.62353 2.35294 2.36078C1.62092 3.09804 1.04575 3.95033 0.627451 4.91765C0.20915 5.87974 0 6.90719 0 8C0 9.09281 0.20915 10.1229 0.627451 11.0902C1.04575 12.0523 1.62353 12.902 2.36078 13.6392C3.09804 14.3765 3.94771 14.9542 4.9098 15.3725C5.87712 15.7908 6.90719 16 8 16ZM8 14.6667C7.07451 14.6667 6.20915 14.4941 5.40392 14.149C4.59869 13.8039 3.8902 13.3281 3.27843 12.7216C2.6719 12.1098 2.19608 11.4013 1.85098 10.5961C1.51111 9.79085 1.34118 8.92549 1.34118 8C1.34118 7.07451 1.51111 6.20915 1.85098 5.40392C2.19608 4.59869 2.6719 3.8902 3.27843 3.27843C3.88497 2.66667 4.59085 2.19085 5.39608 1.85098C6.20131 1.50588 7.06667 1.33333 7.99216 1.33333C8.91765 1.33333 9.78301 1.50588 10.5882 1.85098C11.3935 2.19085 12.102 2.66667 12.7137 3.27843C13.3255 3.8902 13.8039 4.59869 14.149 5.40392C14.4941 6.20915 14.6667 7.07451 14.6667 8C14.6667 8.92549 14.4941 9.79085 14.149 10.5961C13.8091 11.4013 13.3333 12.1098 12.7216 12.7216C12.115 13.3281 11.4065 13.8039 10.5961 14.149C9.79085 14.4941 8.92549 14.6667 8 14.6667ZM5.74118 12.0392L7.99216 10.3922L10.2431 12.0392C10.4 12.1542 10.5464 12.1987 10.6824 12.1725C10.8235 12.1464 10.9281 12.0706 10.9961 11.9451C11.0641 11.8196 11.0693 11.668 11.0118 11.4902L10.1176 8.83137L12.3922 7.20784C12.5333 7.1085 12.6144 6.98823 12.6353 6.84706C12.6562 6.70065 12.6196 6.57255 12.5255 6.46275C12.4366 6.35294 12.2954 6.30065 12.102 6.30588L9.3098 6.32941L8.4549 3.6549C8.40261 3.48235 8.31111 3.36732 8.18039 3.3098C8.0549 3.25229 7.92941 3.25229 7.80392 3.3098C7.67843 3.36732 7.58693 3.48235 7.52941 3.6549L6.68235 6.32941L3.8902 6.30588C3.69673 6.30065 3.55294 6.35294 3.45882 6.46275C3.36993 6.57255 3.33595 6.70065 3.35686 6.84706C3.37778 6.98823 3.45882 7.11111 3.6 7.21569L5.87451 8.83137L4.98039 11.4902C4.92288 11.668 4.9281 11.8196 4.99608 11.9451C5.06405 12.0706 5.16601 12.1464 5.30196 12.1725C5.44314 12.1987 5.58954 12.1542 5.74118 12.0392Z" fill="#4BC202"/>
</svg>
